<svg xmlns="http://www.w3.org/2000/svg" width="960" height="720" viewBox="0 0 960 720" role="img" aria-label="AI Tools for Bharat prompt workbench preview">
  <defs>
    <pattern id="grid" width="32" height="32" patternUnits="userSpaceOnUse">
      <path d="M32 0H0V32" fill="none" stroke="#101820" stroke-opacity=".09" stroke-width="1"/>
    </pattern>
    <linearGradient id="band" x1="0" x2="1">
      <stop offset="0" stop-color="#ff7a1a"/>
      <stop offset=".5" stop-color="#f7c600"/>
      <stop offset="1" stop-color="#138a53"/>
    </linearGradient>
    <filter id="shadow" x="-20%" y="-20%" width="140%" height="140%">
      <feDropShadow dx="0" dy="18" stdDeviation="18" flood-color="#101820" flood-opacity=".18"/>
    </filter>
  </defs>
  <rect width="960" height="720" fill="#fbfbf7"/>
  <rect width="960" height="720" fill="url(#grid)"/>
  <path d="M0 120 960 0v124L0 244Z" fill="url(#band)" opacity=".88"/>
  <g filter="url(#shadow)">
    <rect x="110" y="120" width="740" height="500" rx="20" fill="#fffef8" stroke="#101820" stroke-width="4"/>
    <rect x="110" y="120" width="740" height="64" rx="20" fill="#101820"/>
    <circle cx="150" cy="152" r="11" fill="#ff7a1a"/>
    <circle cx="185" cy="152" r="11" fill="#f7c600"/>
    <circle cx="220" cy="152" r="11" fill="#138a53"/>
    <rect x="145" y="226" width="250" height="52" rx="8" fill="#fffbdb" stroke="#101820" stroke-width="2"/>
    <rect x="420" y="226" width="395" height="52" rx="8" fill="#f1f6ff" stroke="#101820" stroke-width="2"/>
    <rect x="145" y="306" width="210" height="42" rx="8" fill="#101820"/>
    <rect x="374" y="306" width="170" height="42" rx="8" fill="#138a53"/>
    <rect x="563" y="306" width="252" height="42" rx="8" fill="#fff" stroke="#101820" stroke-width="2"/>
    <rect x="145" y="390" width="670" height="150" rx="12" fill="#fff" stroke="#101820" stroke-width="2"/>
    <path d="M170 430h355M170 468h520M170 506h430" stroke="#101820" stroke-width="13" stroke-linecap="round" opacity=".18"/>
    <rect x="590" y="430" width="188" height="58" rx="10" fill="#ff7a1a"/>
    <rect x="145" y="562" width="142" height="34" rx="7" fill="#f7c600"/>
    <rect x="306" y="562" width="142" height="34" rx="7" fill="#138a53"/>
    <rect x="467" y="562" width="142" height="34" rx="7" fill="#2952ff"/>
    <rect x="628" y="562" width="142" height="34" rx="7" fill="#fff" stroke="#101820" stroke-width="2"/>
  </g>
</svg>
